#!OML:ASF F:\VICON\USERDATA\INSTALL\rory3\rory3.ASF
:FULLY-SPECIFIED
:DEGREES
563
root 0.974042 16.4721 20.576 20.892 -2.84537 -1.09003
lowerback -0.504819 -6.44908 0.813744
upperback -10.1849 -9.38199 -5.88697
thorax -11.9212 -5.09623 -5.86719
lowerneck -5.60537 9.17495 3.78064
upperneck 20.864 9.79054 12.1888
head 6.88169 5.99436 4.03707
rclavicle -4.45278e-014 -3.18055e-015
rhumerus -22.2311 -9.80442 -27.3042
rradius 26.1866
rwrist -6.29979
rhand 20.2423 6.34318
rfingers 7.12502
rthumb 44.7607 -17.25
lclavicle -4.45278e-014 -3.18055e-015
lhumerus 38.2769 25.206 83.0345
lradius 41.7142
lwrist 43.982
lhand 21.5973 16.1875
lfingers 7.12502
lthumb 46.0201 39.2737
rfemur -68.7694 6.44918 21.1372
rtibia 42.3188
rfoot 17.1562 -25.9881
rtoes 26.2305
lfemur -12.7291 -11.7514 -26.6237
ltibia 24.2485
lfoot -27.026 19.8561
ltoes -33.715
564
root 0.973579 16.495 20.4564 20.986 -3.50589 -1.13757
lowerback -0.790571 -6.4573 0.584738
upperback -9.84031 -9.36164 -5.86725
thorax -11.2928 -5.05251 -5.7671
lowerneck -6.80672 9.23175 3.6107
upperneck 21.1597 9.762 12.276
head 7.17804 6.01151 4.1785
rclavicle -4.63168e-014 3.49861e-014
rhumerus -21.3567 -11.197 -27.6045
rradius 25.727
rwrist -4.70136
rhand 20.4105 6.47163
rfingers 7.12502
rthumb 44.9173 -17.0604
lclavicle -4.63168e-014 3.49861e-014
lhumerus 38.0591 25.8143 82.4835
lradius 41.2103
lwrist 43.3853
lhand 21.5613 16.2356
lfingers 7.12502
lthumb 45.9867 39.3357
rfemur -68.7959 6.75032 21.1773
rtibia 42.6313
rfoot 17.2537 -25.6998
rtoes 26.7212
lfemur -13.1785 -11.7328 -26.6615
ltibia 23.9581
lfoot -27.3023 19.7635
ltoes -31.7794
565
root 0.983326 16.521 20.3335 21.0238 -3.93619 -1.06521
lowerback -0.888222 -6.31158 0.483354
upperback -9.91165 -9.18112 -5.97703
thorax -11.2984 -4.96545 -5.86107
lowerneck -6.42408 9.18692 3.81555
upperneck 21.1728 9.69962 12.2442
head 7.13289 5.98483 4.11104
rclavicle -1.45709e-013 -6.36111e-014
rhumerus -21.65 -11.1698 -27.4465
rradius 25.7001
rwrist -3.74749
rhand 20.49 6.64541
rfingers 7.12502
rthumb 44.9913 -16.8576
lclavicle -1.45709e-013 -6.36111e-014
lhumerus 36.8281 25.8644 81.8906
lradius 40.7495
lwrist 42.8128
lhand 21.519 16.464
lfingers 7.12502
lthumb 45.9474 39.5804
rfemur -68.7402 6.16969 21.7152
rtibia 42.8888
rfoot 18.2164 -24.5824
rtoes 26.1929
lfemur -13.6055 -11.7066 -26.8209
ltibia 23.7846
lfoot -27.4495 19.8886
ltoes -30.7049
566
root 0.993577 16.5519 20.2157 20.9385 -4.23919 -1.18921
lowerback -0.965709 -6.31554 0.561482
upperback -9.68968 -9.16393 -5.99811
thorax -11.0087 -4.9596 -5.94476
lowerneck -6.6522 9.25196 4.14001
upperneck 21.0789 9.76035 12.0796
head 7.17198 6.02467 4.02367
rclavicle -7.15625e-015 -3.49861e-014
rhumerus -21.4666 -11.4392 -27.5587
rradius 25.6996
rwrist -2.60798
rhand 20.6462 7.25228
rfingers 7.12502
rthumb 45.1365 -16.1933
lclavicle -7.15625e-015 -3.49861e-014
lhumerus 36.2257 26.2675 81.3834
lradius 40.2594
lwrist 42.3172
lhand 21.3728 16.5396
lfingers 7.12502
lthumb 45.8117 39.7121
rfemur -68.4165 5.53282 22.5594
rtibia 42.9597
rfoot 19.0638 -23.463
rtoes 25.0546
lfemur -14.0032 -11.6877 -26.7681
ltibia 23.9347
lfoot -27.8759 20.0663
ltoes -30.4984
567
root 1.00252 16.5806 20.1058 21.0206 -4.63534 -1.63277
lowerback -1.08111 -6.23327 0.947136
upperback -9.68832 -9.02827 -5.93252
thorax -10.9735 -4.92631 -6.11209
lowerneck -6.48248 9.26089 4.32359
upperneck 21.0575 9.76312 12.0488
head 7.14911 6.03106 3.97539
rclavicle 7.41467e-014 -3.18055e-015
rhumerus -21.5626 -11.1106 -27.6257
rradius 25.8863
rwrist -2.0494
rhand 20.6415 7.69457
rfingers 7.12502
rthumb 45.1322 -15.7527
lclavicle 7.41467e-014 -3.18055e-015
lhumerus 35.2866 26.5122 80.5961
lradius 39.7015
lwrist 41.8997
lhand 21.4648 16.7281
lfingers 7.12502
lthumb 45.8971 39.8654
rfemur -68.0622 4.81713 23.9776
rtibia 42.797
rfoot 19.2737 -22.5793
rtoes 24.9724
lfemur -14.7306 -11.5179 -26.3957
ltibia 24.4938
lfoot -28.5462 20.499
ltoes -31.1956
